<mxfile host="app.diagrams.net" modified="2024-04-05T10:17:39.075Z" agent="Mozilla/5.0 (Macintosh; Intel Mac OS X 10_15_7) AppleWebKit/605.1.15 (KHTML, like Gecko) Version/16.1 Safari/605.1.15" version="24.2.2" etag="-zz09Md8U2MNslIswkzT" type="github">
  <diagram name="Page-1" id="cV4_P1KYifTKVsKzo9vI">
    <mxGraphModel>
      <root>
        <mxCell id="0" />
        <mxCell id="1" parent="0" />
      </root>
    </mxGraphModel>
  </diagram>
</mxfile>
